<svg width="32" height="32" viewBox="0 0 32 32" fill="none" xmlns="http://www.w3.org/2000/svg">
<path d="M13.69 28.0003C13.9241 28.4057 14.2607 28.7423 14.6661 28.9763C15.0714 29.2103 15.5313 29.3335 15.9993 29.3335C16.4674 29.3335 16.9273 29.2103 17.3326 28.9763C17.738 28.7423 18.0746 28.4057 18.3087 28.0003M29.3327 10.667C29.3327 7.60033 28.266 4.93366 26.666 2.66699M5.33268 2.66699C3.73268 4.93366 2.66602 7.60033 2.66602 10.667M4.34868 20.435C4.1745 20.6259 4.05955 20.8633 4.01782 21.1184C3.97609 21.3734 4.00937 21.6351 4.11362 21.8715C4.21787 22.108 4.3886 22.3091 4.60502 22.4503C4.82145 22.5915 5.07425 22.6668 5.33268 22.667H26.666C26.9244 22.6671 27.1773 22.5921 27.3938 22.4511C27.6104 22.3102 27.7813 22.1093 27.8859 21.873C27.9904 21.6367 28.024 21.3751 27.9826 21.12C27.9412 20.865 27.8266 20.6274 27.6527 20.4363C25.8793 18.6083 23.9993 16.6657 23.9993 10.667C23.9993 8.54526 23.1565 6.51043 21.6562 5.01014C20.1559 3.50985 18.1211 2.66699 15.9993 2.66699C13.8776 2.66699 11.8428 3.50985 10.3425 5.01014C8.8422 6.51043 7.99935 8.54526 7.99935 10.667C7.99935 16.6657 6.11802 18.6083 4.34868 20.435Z" stroke="black" stroke-width="2" stroke-linecap="round" stroke-linejoin="round"/>
</svg>
