<svg width="24" height="23" viewBox="0 0 24 23" fill="none" xmlns="http://www.w3.org/2000/svg">
<g filter="url(#filter0_d_1036_4012)">
<path d="M5 20C4.45 20 3.97917 19.8042 3.5875 19.4125C3.19583 19.0208 3 18.55 3 18V4C3 3.45 3.19583 2.97917 3.5875 2.5875C3.97917 2.19583 4.45 2 5 2H9.2C9.41667 1.4 9.77917 0.916667 10.2875 0.55C10.7958 0.183333 11.3667 0 12 0C12.6333 0 13.2042 0.183333 13.7125 0.55C14.2208 0.916667 14.5833 1.4 14.8 2H19C19.55 2 20.0208 2.19583 20.4125 2.5875C20.8042 2.97917 21 3.45 21 4V10.7C20.6833 10.55 20.3583 10.4208 20.025 10.3125C19.6917 10.2042 19.35 10.125 19 10.075V4H5V18H11.05C11.1 18.3667 11.1792 18.7167 11.2875 19.05C11.3958 19.3833 11.525 19.7 11.675 20H5ZM5 17V18V4V10.075V10V17ZM7 16H11.075C11.125 15.65 11.2042 15.3083 11.3125 14.975C11.4208 14.6417 11.5417 14.3167 11.675 14H7V16ZM7 12H13.1C13.6333 11.5 14.2292 11.0833 14.8875 10.75C15.5458 10.4167 16.25 10.1917 17 10.075V10H7V12ZM7 8H17V6H7V8ZM12 3.25C12.2167 3.25 12.3958 3.17917 12.5375 3.0375C12.6792 2.89583 12.75 2.71667 12.75 2.5C12.75 2.28333 12.6792 2.10417 12.5375 1.9625C12.3958 1.82083 12.2167 1.75 12 1.75C11.7833 1.75 11.6042 1.82083 11.4625 1.9625C11.3208 2.10417 11.25 2.28333 11.25 2.5C11.25 2.71667 11.3208 2.89583 11.4625 3.0375C11.6042 3.17917 11.7833 3.25 12 3.25ZM18 22C16.6167 22 15.4375 21.5125 14.4625 20.5375C13.4875 19.5625 13 18.3833 13 17C13 15.6167 13.4875 14.4375 14.4625 13.4625C15.4375 12.4875 16.6167 12 18 12C19.3833 12 20.5625 12.4875 21.5375 13.4625C22.5125 14.4375 23 15.6167 23 17C23 18.3833 22.5125 19.5625 21.5375 20.5375C20.5625 21.5125 19.3833 22 18 22ZM18 20.5C18.9 20.5 19.6792 20.2 20.3375 19.6C20.9958 19 21.375 18.2583 21.475 17.375C21.3917 17.4083 21.3125 17.4375 21.2375 17.4625C21.1625 17.4875 21.0833 17.5 21 17.5H20C19.7167 17.5 19.4792 17.4042 19.2875 17.2125C19.0958 17.0208 19 16.7833 19 16.5V16H17V15C17 14.7167 17.0958 14.4792 17.2875 14.2875C17.4792 14.0958 17.7167 14 18 14H18.5C18.5 13.9167 18.5083 13.8375 18.525 13.7625C18.5417 13.6875 18.5667 13.6167 18.6 13.55C18.5 13.5333 18.4 13.5208 18.3 13.5125C18.2 13.5042 18.1 13.5 18 13.5C17.0333 13.5 16.2083 13.8417 15.525 14.525C14.8417 15.2083 14.5 16.0333 14.5 17H16.5C17.05 17 17.5208 17.1958 17.9125 17.5875C18.3042 17.9792 18.5 18.45 18.5 19V19.5H17V20.35C17.1667 20.4 17.3292 20.4375 17.4875 20.4625C17.6458 20.4875 17.8167 20.5 18 20.5Z" fill="black"/>
</g>
<defs>
<filter id="filter0_d_1036_4012" x="-1" y="0" width="28" height="30" filterUnits="userSpaceOnUse" color-interpolation-filters="sRGB">
<feFlood flood-opacity="0" result="BackgroundImageFix"/>
<feColorMatrix in="SourceAlpha" type="matrix" values="0 0 0 0 0 0 0 0 0 0 0 0 0 0 0 0 0 0 127 0" result="hardAlpha"/>
<feOffset dy="4"/>
<feGaussianBlur stdDeviation="2"/>
<feComposite in2="hardAlpha" operator="out"/>
<feColorMatrix type="matrix" values="0 0 0 0 0 0 0 0 0 0 0 0 0 0 0 0 0 0 0.25 0"/>
<feBlend mode="normal" in2="BackgroundImageFix" result="effect1_dropShadow_1036_4012"/>
<feBlend mode="normal" in="SourceGraphic" in2="effect1_dropShadow_1036_4012" result="shape"/>
</filter>
</defs>
</svg>
